<svg width="32" height="32" viewBox="0 0 32 32" fill="none" xmlns="http://www.w3.org/2000/svg">
<path d="M13.3216 19.7217L21.5303 11.513C21.7853 11.2579 22.11 11.1304 22.5042 11.1304C22.8984 11.1304 23.223 11.2579 23.4781 11.513C23.7332 11.7681 23.8607 12.0927 23.8607 12.4869C23.8607 12.8811 23.7332 13.2057 23.4781 13.4608L14.2955 22.6434C14.0172 22.9217 13.6926 23.0608 13.3216 23.0608C12.9506 23.0608 12.6259 22.9217 12.3477 22.6434L8.73026 19.026C8.47519 18.771 8.34766 18.4463 8.34766 18.0521C8.34766 17.6579 8.47519 17.3333 8.73026 17.0782C8.98534 16.8231 9.30997 16.6956 9.70418 16.6956C10.0984 16.6956 10.423 16.8231 10.6781 17.0782L13.3216 19.7217Z" fill="#FF0900"/>
</svg>
