<svg width="40" height="40" viewBox="0 0 40 40" fill="none" xmlns="http://www.w3.org/2000/svg">
<path d="M21.4 26.6L26.6 21.4C26.9667 21.0333 27.15 20.5667 27.15 20C27.15 19.4333 26.9667 18.9667 26.6 18.6L21.35 13.35C20.9833 12.9833 20.5253 12.808 19.976 12.824C19.4253 12.8413 18.9667 13.0333 18.6 13.4C18.2333 13.7667 18.05 14.2333 18.05 14.8C18.05 15.3667 18.2333 15.8333 18.6 16.2L20.4 18H13.95C13.3833 18 12.9167 18.1913 12.55 18.574C12.1833 18.958 12 19.4333 12 20C12 20.5667 12.192 21.0413 12.576 21.424C12.9587 21.808 13.4333 22 14 22H20.4L18.55 23.85C18.1833 24.2167 18.008 24.6753 18.024 25.226C18.0413 25.7753 18.2333 26.2333 18.6 26.6C18.9667 26.9667 19.4333 27.15 20 27.15C20.5667 27.15 21.0333 26.9667 21.4 26.6ZM20 40C17.2333 40 14.6333 39.4747 12.2 38.424C9.76667 37.3747 7.65 35.95 5.85 34.15C4.05 32.35 2.62533 30.2333 1.576 27.8C0.525334 25.3667 0 22.7667 0 20C0 17.2333 0.525334 14.6333 1.576 12.2C2.62533 9.76667 4.05 7.65 5.85 5.85C7.65 4.05 9.76667 2.62467 12.2 1.574C14.6333 0.524667 17.2333 0 20 0C22.7667 0 25.3667 0.524667 27.8 1.574C30.2333 2.62467 32.35 4.05 34.15 5.85C35.95 7.65 37.3747 9.76667 38.424 12.2C39.4747 14.6333 40 17.2333 40 20C40 22.7667 39.4747 25.3667 38.424 27.8C37.3747 30.2333 35.95 32.35 34.15 34.15C32.35 35.95 30.2333 37.3747 27.8 38.424C25.3667 39.4747 22.7667 40 20 40Z" fill="#20750D"/>
</svg>
