<svg width="32" height="32" viewBox="0 0 32 32" fill="none" xmlns="http://www.w3.org/2000/svg">
<g clip-path="url(#clip0_148_337)">
<path d="M27.9999 13.3333H16.8666C15.7733 10.2267 12.8133 8 9.33325 8C4.91992 8 1.33325 11.5867 1.33325 16C1.33325 20.4133 4.91992 24 9.33325 24C12.8133 24 15.7733 21.7733 16.8666 18.6667H17.3333L19.9999 21.3333L22.6666 18.6667L25.3333 21.3333L30.6666 15.9467L27.9999 13.3333ZM9.33325 20C7.13325 20 5.33325 18.2 5.33325 16C5.33325 13.8 7.13325 12 9.33325 12C11.5333 12 13.3333 13.8 13.3333 16C13.3333 18.2 11.5333 20 9.33325 20Z" fill="#FF0900"/>
</g>
<defs>
<clipPath id="clip0_148_337">
<rect width="32" height="32" fill="white"/>
</clipPath>
</defs>
</svg>
