<svg width="32" height="32" viewBox="0 0 32 32" fill="none" xmlns="http://www.w3.org/2000/svg">
<g clip-path="url(#clip0_52_338)">
<path d="M15.9999 22.6666C17.4666 22.6666 18.6666 21.4666 18.6666 20C18.6666 18.5333 17.4666 17.3333 15.9999 17.3333C14.5333 17.3333 13.3333 18.5333 13.3333 20C13.3333 21.4666 14.5333 22.6666 15.9999 22.6666ZM23.9999 10.6666H22.6666V7.99998C22.6666 4.31998 19.6799 1.33331 15.9999 1.33331C12.3199 1.33331 9.33325 4.31998 9.33325 7.99998V10.6666H7.99992C6.53325 10.6666 5.33325 11.8666 5.33325 13.3333V26.6666C5.33325 28.1333 6.53325 29.3333 7.99992 29.3333H23.9999C25.4666 29.3333 26.6666 28.1333 26.6666 26.6666V13.3333C26.6666 11.8666 25.4666 10.6666 23.9999 10.6666ZM11.8666 7.99998C11.8666 5.71998 13.7199 3.86665 15.9999 3.86665C18.2799 3.86665 20.1333 5.71998 20.1333 7.99998V10.6666H11.8666V7.99998ZM23.9999 26.6666H7.99992V13.3333H23.9999V26.6666Z" fill="#FF0900"/>
</g>
<defs>
<clipPath id="clip0_52_338">
<rect width="32" height="32" fill="white"/>
</clipPath>
</defs>
</svg>
