<svg width="32" height="32" viewBox="0 0 32 32" fill="none" xmlns="http://www.w3.org/2000/svg">
<g clip-path="url(#clip0_116_165)">
<path d="M24.6665 14.6667C24.8932 14.6667 25.1198 14.68 25.3332 14.7067V9.16C25.3332 7.78667 24.2132 6.66667 22.8398 6.66667H5.15984C3.7865 6.66667 2.6665 7.78667 2.6665 9.16V22.84C2.6665 24.2133 3.7865 25.3333 5.15984 25.3333H18.1332C17.6265 24.3333 17.3332 23.2 17.3332 22C17.3332 17.9467 20.6132 14.6667 24.6665 14.6667ZM13.8665 17.3333L5.33317 12.2533V9.33334H5.63984L13.8798 14.24L22.3198 9.33334H22.6665V12.2133L13.8665 17.3333Z" fill="#FF0900"/>
<path d="M25.3333 17.3333L23.4533 19.2133L25.56 21.3333H20V24H25.56L23.4533 26.12L25.3333 28L30.6667 22.6667L25.3333 17.3333Z" fill="#FF0900"/>
</g>
<defs>
<clipPath id="clip0_116_165">
<rect width="32" height="32" fill="white"/>
</clipPath>
</defs>
</svg>
