<svg width="800" height="800" viewBox="0 0 800 800" fill="none" xmlns="http://www.w3.org/2000/svg">
<path d="M571.634 144.35L516.439 129.464L540.959 38.5437L398.089 0L373.567 90.9203L318.367 76.0375L306.655 119.455L559.923 187.766L571.634 144.35Z" fill="#FFF9F9"/>
<path d="M559.555 423.981H506.233V519.264C506.233 529.786 497.694 538.325 487.164 538.325H444.586C434.058 538.325 425.519 529.786 425.519 519.264V423.981H240.445C201.869 463.891 178.052 518.147 178.052 578.052C178.052 700.633 277.42 800 400 800C522.58 800 621.948 700.633 621.948 578.052C621.948 518.147 598.131 463.892 559.555 423.981Z" fill="#FFF9F9"/>
<path d="M542.936 363.447C554.648 341.127 561.412 315.812 561.412 288.856C561.412 257.958 552.578 229.188 537.516 204.648L323.214 146.844C272.814 174.156 238.586 227.505 238.586 288.855C238.586 315.811 245.358 341.127 257.062 363.445H542.936V363.447ZM459.15 223.88C471.222 223.88 481.009 233.666 481.009 245.739C481.009 257.812 471.222 267.598 459.15 267.598C447.077 267.598 437.291 257.811 437.291 245.739C437.289 233.666 447.077 223.88 459.15 223.88ZM401.978 319.728L349.069 327.767C341.647 328.897 334.67 324.392 332.378 317.337C332.437 317.6 332.366 317.863 332.437 318.125L332.036 316.613C332.108 316.877 332.3 317.073 332.378 317.337C330.816 309.928 334.802 302.437 341.995 299.837L389.367 282.733C414.589 294.505 401.978 319.728 401.978 319.728ZM326.309 223.88C338.381 223.88 348.169 233.666 348.169 245.739C348.169 257.812 338.381 267.598 326.309 267.598C314.236 267.598 304.45 257.811 304.45 245.739C304.448 233.666 314.236 223.88 326.309 223.88Z" fill="#FFF9F9"/>
</svg>
