<svg width="223" height="286" viewBox="0 0 223 286" fill="none" xmlns="http://www.w3.org/2000/svg">
<path d="M195.289 209.394H207.394L178.645 159.647H194.911L153.301 87.6744L111.786 15.6074L70.1765 87.6744L28.6614 159.647H44.927L16.1785 209.394H28.2831L0.953125 256.776H111.786H222.619L195.289 209.394Z" fill="#00B89D"/>
<path d="M133.253 256.398H91.3599V286H133.253V256.398Z" fill="#603813"/>
<path d="M150.843 124.275C159.637 124.275 159.637 110.656 150.843 110.656C142.142 110.656 142.142 124.275 150.843 124.275Z" fill="white"/>
<path d="M163.893 191.897C172.688 191.897 172.688 178.278 163.893 178.278C155.098 178.278 155.098 191.897 163.893 191.897Z" fill="white"/>
<path d="M194.911 254.601C203.706 254.601 203.706 240.982 194.911 240.982C186.116 241.077 186.116 254.601 194.911 254.601Z" fill="white"/>
<path d="M133.064 91.4575C137.792 91.4575 137.792 84.1751 133.064 84.1751C128.335 84.0805 128.335 91.4575 133.064 91.4575Z" fill="white"/>
<path d="M133.064 144.042C137.792 144.042 137.792 136.759 133.064 136.759C128.335 136.759 128.335 144.042 133.064 144.042Z" fill="white"/>
<path d="M136.563 181.966C141.291 181.966 141.291 174.684 136.563 174.684C131.835 174.59 131.835 181.966 136.563 181.966Z" fill="white"/>
<path d="M150.843 224.526C155.571 224.526 155.571 217.243 150.843 217.243C146.114 217.243 146.114 224.526 150.843 224.526Z" fill="white"/>
<path d="M167.392 251.48C172.12 251.48 172.12 244.198 167.392 244.198C162.664 244.198 162.664 251.48 167.392 251.48Z" fill="white"/>
<path d="M112.259 43.3184C116.988 43.3184 116.988 36.036 112.259 36.036C107.531 36.036 107.531 43.3184 112.259 43.3184Z" fill="white"/>
<path d="M104.032 28.7536L70.0821 87.5799L28.4725 159.552H44.738L15.9895 209.299H28.0942L0.76416 256.587H111.597H152.923C70.8386 214.217 90.5086 85.9721 104.032 28.7536Z" fill="#00A99D"/>
<path d="M107.152 10.1221L111.881 0.759033L116.514 10.3112L126.917 11.919L119.257 19.2014L120.959 29.6047L111.597 24.5922L102.235 29.4156L104.126 19.0122L96.6553 11.5407L107.152 10.1221Z" fill="#FBB03B"/>
<path d="M102.141 74.6229C110.935 74.6229 110.935 61.004 102.141 61.004C93.3457 61.004 93.3457 74.6229 102.141 74.6229Z" fill="white"/>
<path d="M62.8949 191.897C71.6897 191.897 71.6897 178.278 62.8949 178.278C54.1001 178.278 54.1001 191.897 62.8949 191.897Z" fill="white"/>
<path d="M95.5208 131.085C104.316 131.085 104.316 117.466 95.5208 117.466C86.8206 117.466 86.8206 131.085 95.5208 131.085Z" fill="white"/>
<path d="M118.879 234.456C127.674 234.456 127.674 220.837 118.879 220.837C110.084 220.932 110.084 234.456 118.879 234.456Z" fill="white"/>
<path d="M28.6615 241.266C37.4563 241.266 37.4563 227.647 28.6615 227.647C19.8667 227.742 19.8667 241.266 28.6615 241.266Z" fill="white"/>
<path d="M56.2753 133.449C61.0036 133.449 61.0036 126.167 56.2753 126.167C51.5469 126.072 51.5469 133.449 56.2753 133.449Z" fill="white"/>
<path d="M76.891 235.024C81.6194 235.024 81.6194 227.742 76.891 227.742C72.1626 227.742 72.1626 235.024 76.891 235.024Z" fill="white"/>
<path d="M89.7523 96.8484C94.4807 96.8484 94.4807 89.5661 89.7523 89.5661C85.024 89.4715 85.024 96.8484 89.7523 96.8484Z" fill="white"/>
<path d="M96.8446 163.335C101.573 163.335 101.573 156.053 96.8446 156.053C92.1162 155.958 92.1162 163.335 96.8446 163.335Z" fill="white"/>
<path d="M105.166 207.691C109.895 207.691 109.895 200.409 105.166 200.409C100.438 200.409 100.438 207.691 105.166 207.691Z" fill="white"/>
</svg>
