<svg width="300" height="496" viewBox="0 0 300 496" fill="none" xmlns="http://www.w3.org/2000/svg">
<path d="M177.297 23.183C178.944 21.5786 178.037 18.7807 175.759 18.4519L161.125 16.3247C160.22 16.1932 159.438 15.6244 159.037 14.8057L152.494 1.54609C151.478 -0.515362 148.536 -0.515362 147.516 1.54609L140.974 14.8057C140.569 15.6244 139.787 16.1932 138.886 16.3247L124.252 18.4519C121.977 18.7807 121.066 21.5786 122.713 23.183L133.3 33.5035C133.954 34.1413 134.253 35.0585 134.099 35.9594L131.6 50.5309C131.212 52.7995 133.589 54.5256 135.628 53.4571L148.716 46.5757C149.525 46.1516 150.492 46.1516 151.297 46.5757L164.386 53.4571C166.421 54.5289 168.802 52.7995 168.41 50.5309L165.912 35.9594C165.757 35.0585 166.056 34.1413 166.711 33.5035L177.297 23.183Z" fill="#FAD221"/>
<path d="M171.64 390.41H128.373V495.879H171.64V390.41Z" fill="#694336"/>
<path d="M278.391 378.735L280.857 379.149C284.332 379.734 286.739 375.773 284.618 372.958L266.703 349.171L269.169 349.585C272.644 350.171 275.051 346.209 272.93 343.394L255.015 319.607L257.481 320.022C260.956 320.607 263.363 316.645 261.242 313.831L243.327 290.043L245.793 290.458C249.268 291.04 251.675 287.081 249.554 284.267L231.639 260.48L234.105 260.894C237.58 261.479 239.986 257.517 237.866 254.703L219.951 230.919L222.416 231.333C225.892 231.915 228.298 227.957 226.178 225.142L208.263 201.355L210.728 201.769C214.204 202.355 216.61 198.393 214.49 195.578L196.574 171.791L199.04 172.205C202.515 172.791 204.922 168.829 202.802 166.015L184.886 142.231L187.352 142.645C190.827 143.227 193.234 139.268 191.113 136.454L173.198 112.667L175.664 113.081C179.139 113.666 181.546 109.705 179.425 106.89L161.51 83.1063L163.976 83.5205C167.451 84.1057 169.858 80.144 167.737 77.3296L153.586 58.5432C151.791 56.1595 148.214 56.1595 146.419 58.5432L132.268 77.3296C130.148 80.144 132.554 84.1057 136.03 83.5205L138.496 83.1063L120.58 106.89C118.46 109.705 120.866 113.666 124.342 113.081L126.807 112.667L108.892 136.454C106.772 139.268 109.178 143.23 112.653 142.645L115.119 142.231L97.2041 166.015C95.0834 168.829 97.4902 172.791 100.965 172.205L103.431 171.791L85.516 195.578C83.3954 198.393 85.802 202.355 89.2772 201.769L91.7431 201.355L73.8278 225.142C71.7072 227.957 74.1139 231.918 77.5891 231.333L80.055 230.919L62.1398 254.703C60.0191 257.517 62.4258 261.479 65.901 260.894L68.3668 260.48L50.4517 284.267C48.331 287.081 50.7377 291.043 54.2129 290.458L56.6787 290.043L38.7635 313.831C36.6429 316.645 39.0496 320.607 42.5248 320.022L44.9906 319.607L27.0754 343.394C24.9548 346.209 27.3615 350.171 30.8367 349.585L33.3025 349.171L15.3873 372.958C13.2667 375.773 15.6733 379.734 19.1485 379.149L21.6144 378.735L0.789476 406.382C-0.768939 408.45 0.0727575 411.425 2.486 412.369C27.3878 422.094 85.8546 430.291 150 430.301C214.144 430.291 272.611 422.094 297.513 412.369C299.926 411.425 300.768 408.453 299.21 406.382L278.391 378.735Z" fill="#096E40"/>
<path d="M218.442 378.735L219.757 379.149C221.611 379.734 222.893 375.773 221.762 372.958L212.211 349.171L213.526 349.585C215.378 350.171 216.66 346.209 215.532 343.394L205.981 319.607L207.296 320.022C209.147 320.607 210.433 316.645 209.302 313.831L199.751 290.043L201.066 290.458C202.92 291.04 204.202 287.081 203.071 284.267L193.52 260.48L194.835 260.894C196.69 261.479 197.972 257.517 196.841 254.703L187.29 230.919L188.605 231.333C190.459 231.915 191.742 227.957 190.611 225.142L181.06 201.355L182.375 201.769C184.226 202.355 185.508 198.393 184.38 195.578L174.829 171.791L176.144 172.205C177.995 172.791 179.278 168.829 178.15 166.015L168.599 142.231L169.914 142.645C171.768 143.227 173.05 139.268 171.919 136.454L162.368 112.667L163.684 113.081C165.538 113.666 166.82 109.705 165.689 106.89L156.138 83.1063L157.453 83.5205C159.307 84.1057 160.59 80.144 159.459 77.3296L151.917 58.5432C150.96 56.1595 149.053 56.1595 148.096 58.5432L140.554 77.3296C139.423 80.144 140.705 84.1057 142.559 83.5205L143.875 83.1063L134.324 106.89C133.193 109.705 134.475 113.666 136.329 113.081L137.644 112.667L128.093 136.454C126.962 139.268 128.244 143.23 130.099 142.645L131.414 142.231L121.863 166.015C120.732 168.829 122.014 172.791 123.868 172.205L125.183 171.791L115.632 195.578C114.501 198.393 115.784 202.355 117.638 201.769L118.953 201.355L109.402 225.142C108.271 227.957 109.553 231.918 111.408 231.333L112.723 230.919L103.172 254.703C102.041 257.517 103.323 261.479 105.177 260.894L106.492 260.48L96.9413 284.267C95.8103 287.081 97.0925 291.043 98.9469 290.458L100.262 290.043L90.7109 313.831C89.5799 316.645 90.8622 320.607 92.7165 320.022L94.0316 319.607L84.4805 343.394C83.3495 346.209 84.6318 350.171 86.4861 349.585L87.8012 349.171L78.2501 372.958C77.1191 375.773 78.4014 379.734 80.2557 379.149L81.5708 378.735L70.4712 406.382C69.6394 408.45 70.0899 411.425 71.3754 412.369C84.6515 422.094 115.817 430.291 150.01 430.301C184.203 430.291 215.368 422.094 228.644 412.369C229.929 411.425 230.38 408.453 229.548 406.382L218.442 378.735Z" fill="#0F8350"/>
<path d="M62.0595 357.946L55.9639 357.969C54.7047 357.969 53.8104 356.736 54.2313 355.665L56.2762 350.371C56.411 350.016 56.4176 349.625 56.2894 349.257L54.4746 343.822C54.1228 342.714 55.017 341.616 56.1809 341.685C56.1809 341.685 57.6012 341.77 59.0216 341.856C60.432 341.955 61.8491 341.991 61.8491 341.991C62.2272 342.001 62.602 341.882 62.9011 341.649L67.3265 338.17C68.2143 337.457 69.5195 337.825 69.8582 338.926L71.5875 344.315C71.7091 344.67 71.9525 344.973 72.278 345.17C72.278 345.17 73.4912 345.906 74.7044 346.643C75.9209 347.393 77.1603 348.099 77.1603 348.099C78.1697 348.675 78.2946 350.082 77.3773 350.812C77.3773 350.812 76.2463 351.7 75.1153 352.587C73.9712 353.449 72.827 354.307 72.827 354.307C72.518 354.537 72.301 354.862 72.2155 355.234L70.9431 360.764C70.6866 361.895 69.2762 362.382 68.2307 361.701C68.2307 361.701 66.9517 360.889 65.6991 360.008C64.4497 359.143 63.2003 358.282 63.2003 358.282C62.8683 358.055 62.4672 357.937 62.0595 357.946Z" fill="#FAD221"/>
<path d="M101.78 359.084C101.372 362.398 98.16 364.772 94.619 364.213C91.0748 363.68 88.7109 360.475 89.3224 357.167C89.9339 353.873 93.1198 351.696 96.4602 352.199C99.7973 352.729 102.191 355.737 101.78 359.084Z" fill="#FAD221"/>
<path d="M29.7084 336.441C28.0382 339.347 29.2482 343.207 32.5097 344.854C35.7449 346.557 39.5883 345.255 40.9724 342.231C42.3829 339.15 41.0152 335.602 38.0594 334.041C35.0741 332.538 31.3819 333.531 29.7084 336.441Z" fill="#FAD221"/>
<path d="M153.484 368.477L147.908 370.483C146.76 370.881 145.547 370.059 145.573 368.901L145.692 363.227C145.698 362.845 145.57 362.477 145.33 362.178L141.756 357.693C141.036 356.77 141.487 355.428 142.614 355.109L148.131 353.465C148.5 353.353 148.815 353.117 149.029 352.798L152.175 348.054C152.81 347.087 154.22 347.054 154.908 347.985L158.294 352.561C158.524 352.867 158.853 353.087 159.224 353.183L164.83 354.557C165.978 354.833 166.49 356.148 165.81 357.105L162.453 361.75C162.226 362.063 162.118 362.438 162.144 362.816L162.535 368.477C162.617 369.635 161.454 370.512 160.296 370.174L154.638 368.451C154.266 368.336 153.855 368.343 153.484 368.477Z" fill="#FAD221"/>
<path d="M191.459 359.245C191.715 362.589 189.124 365.525 185.656 365.768C182.191 366.025 179.195 363.476 178.985 360.133C178.771 356.779 181.372 353.899 184.794 353.646C188.214 353.406 191.202 355.898 191.459 359.245Z" fill="#FAD221"/>
<path d="M116.096 360.524C115.829 363.851 118.492 366.833 122.037 366.998C125.581 367.208 128.54 364.565 128.648 361.214C128.76 357.854 126.094 355.063 122.704 354.862C119.314 354.704 116.362 357.161 116.096 360.524Z" fill="#FAD221"/>
<path d="M243.905 360.281C243.905 360.281 242.59 361.001 241.275 361.721C239.95 362.431 238.628 363.138 238.628 363.138C237.54 363.703 236.208 363.075 236.064 361.924L235.34 356.296C235.291 355.918 235.11 355.572 234.828 355.313L230.632 351.41C229.784 350.598 230.037 349.214 231.103 348.727L236.291 346.281C236.636 346.12 236.912 345.844 237.073 345.492L239.404 340.317C239.871 339.262 241.232 339.018 242.051 339.84L246.082 343.792C246.355 344.055 246.713 344.216 247.094 344.249C247.094 344.249 248.518 344.358 249.938 344.466C251.362 344.548 252.786 344.627 252.786 344.627C253.953 344.693 254.702 345.896 254.212 346.955L251.747 352.147C251.579 352.495 251.533 352.886 251.625 353.255L253.009 358.755C253.295 359.886 252.269 360.964 251.04 360.81C251.04 360.81 249.54 360.632 248.041 360.455C246.549 360.284 245.062 360.073 245.062 360.073C244.665 360.018 244.257 360.09 243.905 360.281Z" fill="#FAD221"/>
<path d="M279.709 343.062C280.932 346.159 279.186 349.815 275.744 350.979C272.305 352.156 268.721 350.43 267.751 347.189C266.795 343.999 268.613 340.573 271.785 339.489C274.961 338.417 278.466 339.916 279.709 343.062Z" fill="#FAD221"/>
<path d="M205.71 358.068C206.006 361.418 209.07 363.854 212.552 363.519C216.04 363.164 218.562 360.136 218.177 356.809C217.793 353.468 214.732 351.078 211.336 351.426C207.933 351.755 205.411 354.734 205.71 358.068Z" fill="#FAD221"/>
<path d="M68.8526 299.039C68.8526 299.039 67.978 299.164 67.1035 299.289C66.2256 299.42 65.3544 299.519 65.3544 299.519C64.6409 299.591 64.0261 298.986 64.1708 298.355L64.8711 295.268C64.9171 295.061 64.8842 294.84 64.7757 294.646L63.1779 291.74C62.8556 291.148 63.2666 290.468 63.9669 290.428L67.3895 290.237C67.6164 290.228 67.8334 290.122 67.9945 289.974L70.3847 287.719C70.8713 287.259 71.7064 287.397 72.0056 287.985L73.4818 290.878C73.5804 291.072 73.7514 291.23 73.9586 291.326L77.0951 292.753C77.7362 293.045 77.8907 293.828 77.3844 294.265L74.889 296.399C74.7213 296.54 74.6128 296.734 74.5865 296.944L74.1788 300.088C74.0967 300.729 73.3142 301.071 72.6697 300.745L69.5398 299.151C69.3261 299.045 69.0861 299.006 68.8526 299.039Z" fill="#D02600"/>
<path d="M92.2596 298.319C92.0689 300.183 90.2244 301.492 88.1367 301.245C86.0489 300.995 84.5563 299.289 84.7963 297.428C85.0396 295.57 86.8841 294.262 88.9192 294.505C90.9511 294.748 92.447 296.455 92.2596 298.319Z" fill="#D02600"/>
<path d="M47.7884 290.372C47.3215 292.187 48.5939 294.087 50.629 294.617C52.6543 295.182 54.6764 293.979 55.084 292.171C55.5016 290.32 54.1963 288.574 52.2236 288.021C50.2411 287.505 48.2553 288.557 47.7884 290.372Z" fill="#D02600"/>
<path d="M123.042 304.02C123.042 304.02 122.204 304.306 121.362 304.533C120.521 304.773 119.679 305.013 119.679 305.013C118.988 305.21 118.282 304.723 118.314 304.079L118.476 300.916C118.485 300.706 118.416 300.495 118.275 300.321L116.204 297.747C115.783 297.221 116.075 296.481 116.759 296.317L120.1 295.521C120.323 295.468 120.517 295.347 120.649 295.176L122.621 292.611C123.023 292.072 123.871 292.059 124.265 292.588L126.212 295.176C126.343 295.35 126.537 295.475 126.758 295.531L130.091 296.382C130.775 296.557 131.058 297.303 130.631 297.822L128.533 300.36C128.392 300.531 128.319 300.739 128.326 300.952L128.457 304.118C128.484 304.766 127.77 305.24 127.083 305.029L123.729 304.013C123.512 303.944 123.269 303.947 123.042 304.02Z" fill="#D02600"/>
<path d="M145.981 299.292C146.109 301.163 144.511 302.774 142.414 302.895C140.316 303.014 138.554 301.593 138.478 299.723C138.403 297.852 140 296.238 142.045 296.119C144.094 296.001 145.853 297.421 145.981 299.292Z" fill="#D02600"/>
<path d="M100.813 299.052C100.665 300.919 102.247 302.56 104.341 302.718C106.439 302.872 108.211 301.482 108.306 299.611C108.402 297.74 106.82 296.099 104.778 295.945C102.737 295.794 100.961 297.184 100.813 299.052Z" fill="#D02600"/>
<path d="M177.289 299.759L174.139 301.291C173.491 301.603 172.712 301.252 172.64 300.607L172.268 297.461C172.242 297.25 172.14 297.056 171.972 296.912L169.5 294.735C168.997 294.291 169.158 293.509 169.806 293.229L172.962 291.865C173.172 291.773 173.343 291.618 173.445 291.428L174.961 288.567C175.267 287.982 176.108 287.86 176.588 288.33L178.939 290.55C179.097 290.698 179.311 290.786 179.537 290.806L182.96 291.063C183.66 291.115 184.065 291.802 183.733 292.388L182.092 295.258C181.98 295.452 181.944 295.669 181.99 295.876L182.651 298.973C182.786 299.604 182.164 300.196 181.451 300.111C181.451 300.111 180.583 300.005 179.712 299.9C178.847 299.808 177.972 299.66 177.972 299.66C177.739 299.621 177.499 299.657 177.289 299.759Z" fill="#D02600"/>
<path d="M199.109 291.25C199.55 293.072 198.248 294.942 196.203 295.426C194.158 295.909 192.185 294.817 191.797 292.983C191.409 291.148 192.711 289.281 194.703 288.807C196.696 288.337 198.668 289.432 199.109 291.25Z" fill="#D02600"/>
<path d="M154.543 298.611C154.711 300.479 156.546 301.82 158.633 301.606C160.725 301.396 162.24 299.713 162.017 297.852C161.796 295.991 159.965 294.65 157.927 294.857C155.888 295.067 154.376 296.747 154.543 298.611Z" fill="#D02600"/>
<path d="M230.042 286.404L227.201 288.472C226.619 288.896 225.791 288.682 225.607 288.061L224.709 285.023C224.65 284.819 224.512 284.648 224.324 284.533L221.523 282.82C220.954 282.468 220.981 281.669 221.569 281.282L224.439 279.378C224.63 279.25 224.772 279.069 224.841 278.862L225.843 275.771C226.044 275.14 226.849 274.874 227.402 275.252L230.118 277.1C230.298 277.221 230.528 277.29 230.755 277.261L234.161 276.909C234.859 276.836 235.375 277.441 235.148 278.079L234.027 281.199C233.951 281.41 233.951 281.63 234.03 281.827L235.207 284.767C235.447 285.368 234.937 286.059 234.221 286.101C234.221 286.101 233.343 286.144 232.455 286.154C231.574 286.171 230.69 286.184 230.69 286.184C230.463 286.19 230.233 286.266 230.042 286.404Z" fill="#D02600"/>
<path d="M250.099 274.315C250.846 276.034 249.892 278.112 247.965 278.954C246.052 279.832 243.869 278.96 243.178 277.241C242.472 275.482 243.487 273.549 245.348 272.691C247.226 271.872 249.353 272.598 250.099 274.315Z" fill="#D02600"/>
<path d="M207.444 289.179C207.924 290.99 209.953 291.993 211.975 291.418C213.997 290.842 215.204 288.919 214.671 287.124C214.138 285.325 212.11 284.326 210.14 284.885C208.168 285.444 206.961 287.367 207.444 289.179Z" fill="#D02600"/>
<path d="M188.171 217.505C188.171 217.505 189.148 216.545 190.124 215.588C191.051 214.562 191.975 213.537 191.975 213.537C192.722 212.695 194.073 212.971 194.596 214.063L197.124 219.412C197.292 219.77 197.574 220.059 197.923 220.234L203.216 222.782C204.314 223.291 204.581 224.731 203.699 225.567L199.363 229.68C199.07 229.956 198.876 230.324 198.814 230.722C198.814 230.722 198.603 232.244 198.317 233.674C198.035 235.124 197.752 236.577 197.752 236.577C197.512 237.768 196.088 238.386 195.033 237.754L189.95 234.634C189.614 234.424 189.217 234.335 188.822 234.384C188.822 234.384 187.349 234.565 185.876 234.743C184.384 234.832 182.888 234.92 182.888 234.92C181.668 234.989 180.764 233.826 181.122 232.685L182.773 227.128C182.875 226.753 182.842 226.339 182.687 225.978L180.379 220.536C179.912 219.422 180.59 218.185 181.698 218.146L187.188 217.932C187.563 217.913 187.908 217.761 188.171 217.505Z" fill="#FAD221"/>
<path d="M155.773 236.009C155.036 232.55 157.052 229.348 160.188 228.513C163.312 227.625 166.655 229.63 167.655 232.984C168.654 236.338 166.711 239.832 163.315 240.789C159.909 241.69 156.493 239.392 155.773 236.009Z" fill="#FAD221"/>
<path d="M222.534 205.981C220.43 203.187 216.587 202.427 213.95 204.295C211.359 206.228 210.577 209.933 212.431 212.902C214.282 215.868 218.27 216.847 221.114 214.74C224.004 212.698 224.635 208.776 222.534 205.981Z" fill="#FAD221"/>
<path d="M106.189 232.425L111.413 230.722C112.465 230.373 113.53 231.3 113.478 232.504L113.202 238.405C113.182 238.8 113.294 239.194 113.52 239.52L116.996 244.159C117.725 245.106 117.285 246.513 116.115 246.868C116.115 246.868 114.681 247.302 113.251 247.736C111.807 248.078 110.364 248.42 110.364 248.42C109.976 248.512 109.634 248.732 109.391 249.048L105.705 253.736C104.936 254.693 103.384 254.611 102.746 253.575C102.746 253.575 101.977 252.313 101.208 251.05C100.448 249.801 99.7215 248.45 99.7215 248.45C99.5243 248.098 99.2152 247.818 98.847 247.66L93.3531 245.31C92.2385 244.83 91.9887 243.39 92.8435 242.528L96.9236 238.303C97.1899 238.021 97.3543 237.649 97.3872 237.255L97.9034 231.363C98.0152 230.16 99.1889 229.433 100.179 229.962C100.179 229.962 101.402 230.603 102.625 231.244C103.874 231.803 105.12 232.366 105.12 232.366C105.455 232.52 105.834 232.54 106.189 232.425Z" fill="#FAD221"/>
<path d="M68.9448 233.494C69.9476 230.143 73.2912 228.095 76.4081 228.93C79.5085 229.844 81.5272 233.046 80.8203 236.476C80.1135 239.898 76.7139 242.203 73.3143 241.213C69.8983 240.303 67.942 236.844 68.9448 233.494Z" fill="#FAD221"/>
<path d="M141.977 238.481C141.468 234.983 138.466 232.678 135.234 232.984C131.995 233.237 129.556 236.278 129.783 239.766C130.01 243.258 133.044 245.862 136.562 245.579C140.07 245.244 142.477 241.904 141.977 238.481Z" fill="#FAD221"/>
<path d="M105.529 178.147L102.448 178.462C101.814 178.525 101.317 177.923 101.498 177.302L102.363 174.254C102.422 174.05 102.409 173.833 102.33 173.639L101.189 170.759C100.962 170.174 101.38 169.506 101.988 169.47L104.95 169.296C105.148 169.283 105.335 169.2 105.486 169.056L107.683 166.915C108.126 166.475 108.813 166.662 109.024 167.247L110.083 170.114C110.155 170.305 110.29 170.463 110.461 170.558L113.061 171.975C113.594 172.265 113.683 173.047 113.226 173.481L110.951 175.595C110.796 175.737 110.691 175.927 110.655 176.138L110.115 179.258C110.007 179.896 109.3 180.231 108.754 179.902L106.111 178.291C105.94 178.179 105.733 178.127 105.529 178.147Z" fill="#D02600"/>
<path d="M125.878 177.505C125.684 179.392 124.057 180.721 122.249 180.464C120.437 180.215 119.191 178.511 119.47 176.657C119.746 174.803 121.371 173.494 123.097 173.731C124.82 173.981 126.066 175.664 125.878 177.505Z" fill="#D02600"/>
<path d="M152.61 182.223L149.737 183.361C149.145 183.594 148.504 183.147 148.504 182.5L148.501 179.33C148.501 179.12 148.432 178.913 148.303 178.748L146.42 176.286C146.041 175.783 146.258 175.026 146.834 174.829L149.635 173.859C149.822 173.793 149.98 173.662 150.085 173.484L151.618 170.831C151.927 170.302 152.637 170.262 153.002 170.759L154.803 173.235C154.925 173.399 155.096 173.514 155.29 173.56L158.18 174.227C158.772 174.366 159.071 175.092 158.745 175.631L157.131 178.278C157.019 178.456 156.973 178.666 156.996 178.876L157.328 182.026C157.397 182.67 156.809 183.183 156.194 183.012L153.215 182.184C153.015 182.138 152.801 182.151 152.61 182.223Z" fill="#D02600"/>
<path d="M172.008 176.065C172.327 177.92 171.13 179.698 169.315 179.915C167.504 180.159 165.844 178.85 165.61 176.989C165.373 175.132 166.587 173.435 168.313 173.202C170.045 172.998 171.693 174.227 172.008 176.065Z" fill="#D02600"/>
<path d="M133.245 178.114C133.123 179.994 134.501 181.635 136.329 181.658C138.157 181.71 139.669 180.231 139.705 178.36C139.741 176.486 138.361 174.928 136.618 174.878C134.872 174.859 133.366 176.253 133.245 178.114Z" fill="#D02600"/>
<path d="M199.034 173.376L196.578 175.26C196.072 175.641 195.332 175.385 195.158 174.76L194.293 171.712C194.234 171.508 194.113 171.328 193.945 171.206L191.459 169.342C190.956 168.96 190.963 168.175 191.463 167.829L193.899 166.146C194.06 166.034 194.178 165.863 194.231 165.666L194.981 162.704C195.129 162.096 195.793 161.839 196.279 162.23L198.689 164.124C198.854 164.249 199.051 164.315 199.248 164.305L202.21 164.167C202.819 164.137 203.305 164.759 203.141 165.364L202.312 168.346C202.257 168.546 202.266 168.763 202.345 168.96L203.526 171.9C203.769 172.501 203.341 173.152 202.704 173.156L199.607 173.166C199.396 173.169 199.196 173.241 199.034 173.376Z" fill="#D02600"/>
<path d="M179.271 174.685C179.663 176.542 181.422 177.69 183.194 177.242C184.969 176.805 186.028 174.977 185.558 173.162C185.087 171.347 183.335 170.216 181.642 170.637C179.952 171.065 178.89 172.873 179.271 174.685Z" fill="#D02600"/>
<path d="M145.37 116.698L149.299 113.249C150.082 112.542 151.328 112.914 151.742 114.031L153.731 119.463C153.863 119.828 154.109 120.134 154.432 120.334C154.432 120.334 155.638 121.077 156.848 121.823C158.084 122.557 159.32 123.29 159.32 123.29C160.343 123.885 160.488 125.302 159.564 126.038C159.564 126.038 158.433 126.939 157.305 127.843C156.174 128.767 155 129.622 155 129.622C154.685 129.849 154.461 130.178 154.362 130.553C154.362 130.553 153.978 131.953 153.593 133.357C153.182 134.768 152.771 136.178 152.771 136.178C152.433 137.352 150.979 137.828 150.009 137.085C150.009 137.085 148.842 136.194 147.675 135.303C146.534 134.403 145.393 133.505 145.393 133.505C145.091 133.262 144.716 133.133 144.328 133.137C144.328 133.137 142.875 133.143 141.418 133.074C139.975 133.018 138.528 132.962 138.528 132.962C137.351 132.916 136.625 131.69 137.095 130.605C137.095 130.605 137.654 129.28 138.213 127.959C138.742 126.643 139.275 125.325 139.275 125.325C139.413 124.973 139.429 124.579 139.318 124.207L137.697 118.657C137.368 117.513 138.15 116.471 139.199 116.579L144.41 117.02C144.762 117.046 145.104 116.934 145.37 116.698Z" fill="#FAD221"/>
<path d="M112.466 130.191C112.334 126.752 114.711 123.898 117.762 123.619C120.81 123.29 123.687 125.769 124.18 129.109C124.683 132.532 122.322 135.583 118.906 135.948C115.487 136.26 112.594 133.584 112.466 130.191Z" fill="#FAD221"/>
<path d="M178.938 108.32C177.001 105.476 173.394 104.589 170.774 106.18C168.124 107.725 167.282 111.427 168.87 114.409C170.498 117.464 174.21 118.513 177.175 116.78C180.111 114.998 180.851 111.128 178.938 108.32Z" fill="#FAD221"/>
</svg>
