<svg width="250" height="400" viewBox="0 0 250 400" fill="none" xmlns="http://www.w3.org/2000/svg">
<path d="M147.748 19.3192C149.121 17.9822 148.365 15.6506 146.466 15.3766L134.271 13.6039C133.518 13.4943 132.866 13.0203 132.531 12.3381L127.079 1.2884C126.232 -0.429468 123.78 -0.429468 122.931 1.2884L117.479 12.3381C117.142 13.0203 116.49 13.4943 115.739 13.6039L103.544 15.3766C101.648 15.6506 100.889 17.9822 102.262 19.3192L111.084 27.9196C111.629 28.4511 111.878 29.2154 111.75 29.9661L109.667 42.1091C109.344 43.9996 111.325 45.438 113.024 44.5476L123.931 38.8131C124.605 38.4596 125.41 38.4596 126.082 38.8131L136.989 44.5476C138.685 45.4408 140.669 43.9996 140.343 42.1091L138.26 29.9661C138.131 29.2154 138.381 28.4511 138.926 27.9196L147.748 19.3192Z" fill="#FAD221"/>
<path d="M143.034 312.11H106.978V400.001H143.034V312.11Z" fill="#694336"/>
<path d="M231.993 315.612L234.048 315.958C236.944 316.445 238.95 313.144 237.182 310.799L222.253 290.976L224.308 291.321C227.204 291.809 229.209 288.507 227.442 286.162L212.513 266.339L214.568 266.685C217.464 267.172 219.469 263.871 217.702 261.526L202.773 241.703L204.828 242.048C207.724 242.533 209.729 239.234 207.962 236.889L193.033 217.066L195.088 217.412C197.984 217.899 199.989 214.598 198.222 212.252L183.293 192.432L185.347 192.778C188.243 193.263 190.249 189.964 188.482 187.619L173.553 167.796L175.607 168.141C178.503 168.629 180.509 165.327 178.742 162.982L163.812 143.159L165.867 143.505C168.763 143.992 170.769 140.691 169.002 138.346L154.072 118.526L156.127 118.871C159.023 119.356 161.029 116.057 159.262 113.712L144.332 93.8891L146.387 94.2342C149.283 94.7219 151.289 91.4204 149.521 89.0751L134.592 69.2553L136.647 69.6004C139.543 70.0881 141.549 66.7866 139.781 64.4413L127.989 48.786C126.493 46.7996 123.512 46.7996 122.016 48.786L110.224 64.4413C108.457 66.7866 110.462 70.0881 113.358 69.6004L115.413 69.2553L100.484 89.0751C98.7168 91.4204 100.722 94.7219 103.618 94.2342L105.673 93.8891L90.7439 113.712C88.9767 116.057 90.9823 119.358 93.8783 118.871L95.9331 118.526L81.0038 138.346C79.2366 140.691 81.2422 143.992 84.1382 143.505L86.1931 143.159L71.2637 162.982C69.4965 165.327 71.5021 168.629 74.3981 168.141L76.453 167.796L61.5236 187.619C59.7564 189.964 61.762 193.265 64.658 192.778L66.7129 192.432L51.7835 212.252C50.0163 214.598 52.0219 217.899 54.9179 217.412L56.9728 217.066L42.0435 236.889C40.2763 239.234 42.2818 242.536 45.1778 242.048L47.2327 241.703L32.3033 261.526C30.5362 263.871 32.5417 267.172 35.4377 266.685L37.4926 266.339L22.5633 286.162C20.7961 288.507 22.8016 291.809 25.6976 291.321L27.7525 290.976L12.8232 310.799C11.056 313.144 13.0615 316.445 15.9575 315.958L18.0124 315.612L0.658303 338.652C-0.640376 340.375 0.0610381 342.855 2.07207 343.641C22.8235 351.745 71.5459 358.576 125 358.584C178.454 358.576 227.176 351.745 247.928 343.641C249.939 342.855 250.64 340.378 249.342 338.652L231.993 315.612Z" fill="#096E40"/>
<path d="M182.035 315.612L183.131 315.958C184.676 316.445 185.745 313.144 184.802 310.799L176.843 290.976L177.939 291.321C179.481 291.809 180.55 288.507 179.61 286.162L171.651 266.339L172.747 266.685C174.289 267.172 175.361 263.871 174.418 261.526L166.459 241.703L167.555 242.048C169.1 242.533 170.169 239.234 169.226 236.889L161.267 217.066L162.363 217.412C163.908 217.899 164.977 214.598 164.034 212.252L156.075 192.432L157.171 192.778C158.716 193.263 159.785 189.964 158.842 187.619L150.883 167.796L151.979 168.141C153.522 168.629 154.59 165.327 153.65 162.982L145.691 143.159L146.787 143.505C148.33 143.992 149.398 140.691 148.458 138.346L140.499 118.526L141.595 118.871C143.14 119.356 144.209 116.057 143.266 113.712L135.307 93.8891L136.403 94.2342C137.948 94.7219 139.017 91.4204 138.074 89.0751L130.115 69.2553L131.211 69.6004C132.756 70.0881 133.825 66.7866 132.882 64.4413L126.597 48.786C125.8 46.7996 124.211 46.7996 123.414 48.786L117.128 64.4413C116.186 66.7866 117.254 70.0881 118.8 69.6004L119.896 69.2553L111.936 89.0751C110.994 91.4204 112.062 94.7219 113.608 94.2342L114.704 93.8891L106.744 113.712C105.802 116.057 106.87 119.358 108.416 118.871L109.512 118.526L101.552 138.346C100.61 140.691 101.678 143.992 103.224 143.505L104.32 143.159L96.3605 162.982C95.418 165.327 96.4865 168.629 98.0318 168.141L99.1277 167.796L91.1685 187.619C90.226 189.964 91.2945 193.265 92.8398 192.778L93.9357 192.432L85.9765 212.252C85.034 214.598 86.1026 217.899 87.6478 217.412L88.7438 217.066L80.7846 236.889C79.8421 239.234 80.9106 242.536 82.4559 242.048L83.5518 241.703L75.5926 261.526C74.6501 263.871 75.7186 267.172 77.2639 266.685L78.3598 266.339L70.4006 286.162C69.4581 288.507 70.5266 291.809 72.0719 291.321L73.1678 290.976L65.2086 310.799C64.2661 313.144 65.3346 316.445 66.8799 315.958L67.9759 315.612L58.7262 338.652C58.033 340.375 58.4084 342.855 59.4797 343.641C70.5431 351.745 96.5139 358.576 125.008 358.584C153.502 358.576 179.473 351.745 190.537 343.641C191.608 342.855 191.983 340.378 191.29 338.652L182.035 315.612Z" fill="#0F8350"/>
<path d="M51.7167 298.289L46.6371 298.308C45.5877 298.308 44.8425 297.28 45.1932 296.387L46.8974 291.976C47.0097 291.68 47.0152 291.354 46.9083 291.047L45.396 286.518C45.1028 285.595 45.848 284.68 46.8179 284.737C46.8179 284.737 48.0015 284.809 49.1851 284.88C50.3605 284.962 51.5414 284.992 51.5414 284.992C51.8565 285 52.1688 284.902 52.4181 284.707L56.1059 281.809C56.8457 281.214 57.9334 281.521 58.2156 282.439L59.6567 286.929C59.7581 287.225 59.9609 287.477 60.2321 287.642C60.2321 287.642 61.2431 288.255 62.2541 288.869C63.2679 289.494 64.3008 290.083 64.3008 290.083C65.1419 290.562 65.246 291.735 64.4816 292.343C64.4816 292.343 63.5391 293.083 62.5966 293.823C61.6431 294.541 60.6897 295.256 60.6897 295.256C60.4321 295.447 60.2513 295.719 60.1801 296.028L59.1197 300.637C58.906 301.579 57.7306 301.985 56.8594 301.417C56.8594 301.417 55.7936 300.741 54.7497 300.006C53.7086 299.286 52.6674 298.568 52.6674 298.568C52.3907 298.379 52.0565 298.28 51.7167 298.289Z" fill="#FAD221"/>
<path d="M84.8169 299.237C84.4772 301.998 81.8004 303.977 78.8496 303.511C75.896 303.067 73.9261 300.396 74.4357 297.639C74.9453 294.894 77.6002 293.08 80.3839 293.499C83.1648 293.941 85.1594 296.448 84.8169 299.237Z" fill="#FAD221"/>
<path d="M24.7576 280.367C23.3658 282.789 24.374 286.006 27.092 287.379C29.7879 288.798 32.9908 287.713 34.1443 285.192C35.3196 282.625 34.1799 279.669 31.7168 278.367C29.229 277.115 26.1522 277.943 24.7576 280.367Z" fill="#FAD221"/>
<path d="M127.904 307.064L123.257 308.736C122.301 309.067 121.29 308.382 121.312 307.418L121.411 302.689C121.416 302.371 121.309 302.064 121.109 301.815L118.131 298.078C117.531 297.308 117.906 296.19 118.846 295.924L123.443 294.554C123.75 294.461 124.013 294.264 124.191 293.998L126.813 290.045C127.342 289.239 128.518 289.212 129.09 289.987L131.912 293.801C132.104 294.056 132.378 294.239 132.688 294.319L137.359 295.464C138.315 295.694 138.743 296.79 138.176 297.587L135.378 301.459C135.189 301.719 135.099 302.031 135.121 302.346L135.447 307.064C135.515 308.029 134.545 308.76 133.581 308.478L128.866 307.042C128.556 306.947 128.214 306.952 127.904 307.064Z" fill="#FAD221"/>
<path d="M159.55 299.371C159.763 302.157 157.604 304.604 154.714 304.807C151.826 305.02 149.33 302.897 149.155 300.111C148.977 297.316 151.144 294.916 153.996 294.705C156.845 294.505 159.336 296.582 159.55 299.371Z" fill="#FAD221"/>
<path d="M96.7467 300.437C96.5248 303.209 98.7441 305.694 101.698 305.831C104.651 306.007 107.117 303.804 107.207 301.012C107.301 298.212 105.079 295.886 102.254 295.719C99.4291 295.587 96.9687 297.634 96.7467 300.437Z" fill="#FAD221"/>
<path d="M203.255 300.234C203.255 300.234 202.159 300.834 201.063 301.434C199.959 302.026 198.857 302.615 198.857 302.615C197.951 303.086 196.841 302.563 196.72 301.604L196.118 296.913C196.077 296.598 195.926 296.31 195.69 296.094L192.194 292.842C191.487 292.165 191.698 291.011 192.586 290.606L196.909 288.568C197.197 288.433 197.427 288.203 197.562 287.91L199.504 283.598C199.893 282.718 201.027 282.515 201.71 283.2L205.069 286.493C205.296 286.713 205.595 286.847 205.913 286.874C205.913 286.874 207.099 286.965 208.282 287.055C209.469 287.124 210.655 287.189 210.655 287.189C211.628 287.244 212.253 288.247 211.844 289.129L209.789 293.455C209.65 293.746 209.611 294.072 209.688 294.379L210.842 298.962C211.08 299.905 210.225 300.804 209.2 300.675C209.2 300.675 207.951 300.527 206.702 300.379C205.458 300.236 204.219 300.061 204.219 300.061C203.888 300.015 203.548 300.075 203.255 300.234Z" fill="#FAD221"/>
<path d="M233.092 285.885C234.111 288.466 232.656 291.513 229.787 292.483C226.921 293.464 223.935 292.025 223.127 289.324C222.329 286.666 223.845 283.811 226.489 282.907C229.135 282.014 232.056 283.263 233.092 285.885Z" fill="#FAD221"/>
<path d="M171.425 298.39C171.672 301.182 174.225 303.212 177.127 302.932C180.034 302.637 182.135 300.113 181.815 297.34C181.494 294.557 178.943 292.565 176.113 292.855C173.277 293.129 171.176 295.612 171.425 298.39Z" fill="#FAD221"/>
<path d="M57.3775 249.199C57.3775 249.199 56.6487 249.303 55.9199 249.407C55.1884 249.517 54.4623 249.599 54.4623 249.599C53.8678 249.659 53.3554 249.155 53.476 248.629L54.0595 246.056C54.0979 245.884 54.0705 245.7 53.9801 245.539L52.6485 243.117C52.38 242.623 52.7225 242.056 53.3061 242.023L56.1583 241.865C56.3473 241.856 56.5282 241.769 56.6624 241.645L58.6542 239.766C59.0597 239.382 59.7557 239.497 60.005 239.988L61.2352 242.399C61.3174 242.56 61.4598 242.692 61.6325 242.771L64.2462 243.96C64.7805 244.204 64.9093 244.856 64.4873 245.221L62.4078 246.999C62.2681 247.117 62.1777 247.278 62.1557 247.454L61.816 250.073C61.7475 250.607 61.0955 250.892 60.5584 250.621L57.9501 249.292C57.7721 249.205 57.572 249.172 57.3775 249.199Z" fill="#D02600"/>
<path d="M76.8836 248.599C76.7246 250.152 75.1876 251.243 73.4478 251.038C71.708 250.829 70.4642 249.407 70.6642 247.857C70.8669 246.309 72.404 245.218 74.0999 245.421C75.7931 245.624 77.0397 247.046 76.8836 248.599Z" fill="#D02600"/>
<path d="M39.8241 241.977C39.435 243.489 40.4953 245.073 42.1913 245.514C43.879 245.985 45.564 244.983 45.9038 243.476C46.2517 241.933 45.164 240.478 43.5201 240.018C41.868 239.588 40.2131 240.465 39.8241 241.977Z" fill="#D02600"/>
<path d="M102.536 253.35C102.536 253.35 101.837 253.588 101.135 253.777C100.434 253.977 99.7327 254.177 99.7327 254.177C99.1573 254.342 98.5682 253.936 98.5956 253.399L98.7299 250.763C98.7381 250.588 98.6806 250.413 98.5628 250.268L96.8367 248.122C96.486 247.684 96.7298 247.067 97.2997 246.93L100.083 246.267C100.27 246.224 100.431 246.122 100.541 245.98L102.185 243.843C102.519 243.393 103.226 243.382 103.555 243.823L105.177 245.98C105.286 246.125 105.448 246.229 105.632 246.276L108.41 246.985C108.98 247.13 109.215 247.752 108.859 248.185L107.111 250.3C106.993 250.443 106.933 250.615 106.938 250.794L107.048 253.432C107.07 253.972 106.475 254.366 105.903 254.191L103.108 253.344C102.927 253.287 102.725 253.29 102.536 253.35Z" fill="#D02600"/>
<path d="M121.651 249.41C121.758 250.969 120.426 252.311 118.678 252.413C116.93 252.511 115.462 251.328 115.399 249.769C115.336 248.21 116.667 246.865 118.371 246.766C120.078 246.667 121.544 247.851 121.651 249.41Z" fill="#D02600"/>
<path d="M84.0114 249.21C83.8881 250.766 85.206 252.133 86.9512 252.265C88.6993 252.394 90.176 251.235 90.2555 249.676C90.335 248.117 89.0171 246.75 87.3156 246.621C85.6142 246.495 84.1347 247.654 84.0114 249.21Z" fill="#D02600"/>
<path d="M147.741 249.799L145.116 251.076C144.576 251.336 143.927 251.043 143.867 250.506L143.557 247.884C143.535 247.709 143.45 247.547 143.311 247.426L141.25 245.613C140.831 245.243 140.965 244.591 141.505 244.358L144.135 243.221C144.311 243.144 144.453 243.015 144.538 242.856L145.801 240.473C146.056 239.985 146.757 239.884 147.157 240.275L149.116 242.125C149.248 242.248 149.426 242.322 149.615 242.338L152.467 242.552C153.051 242.596 153.388 243.169 153.111 243.656L151.744 246.048C151.651 246.21 151.621 246.391 151.659 246.563L152.21 249.144C152.322 249.67 151.804 250.163 151.21 250.092C151.21 250.092 150.486 250.005 149.76 249.917C149.04 249.84 148.311 249.717 148.311 249.717C148.116 249.684 147.916 249.714 147.741 249.799Z" fill="#D02600"/>
<path d="M165.925 242.709C166.292 244.226 165.207 245.785 163.503 246.188C161.799 246.591 160.155 245.681 159.831 244.152C159.508 242.624 160.593 241.067 162.253 240.673C163.914 240.281 165.558 241.193 165.925 242.709Z" fill="#D02600"/>
<path d="M128.786 248.843C128.926 250.399 130.455 251.517 132.195 251.339C133.937 251.163 135.2 249.761 135.014 248.21C134.831 246.659 133.304 245.541 131.606 245.714C129.907 245.889 128.647 247.289 128.786 248.843Z" fill="#D02600"/>
<path d="M191.701 238.67L189.334 240.393C188.849 240.747 188.159 240.569 188.005 240.051L187.257 237.519C187.208 237.349 187.093 237.207 186.937 237.111L184.603 235.684C184.129 235.39 184.151 234.725 184.641 234.401L187.033 232.815C187.192 232.708 187.31 232.557 187.367 232.385L188.203 229.809C188.37 229.283 189.041 229.061 189.501 229.376L191.765 230.916C191.915 231.018 192.107 231.075 192.296 231.05L195.134 230.757C195.715 230.697 196.146 231.201 195.956 231.733L195.022 234.333C194.959 234.508 194.959 234.692 195.025 234.856L196.006 237.306C196.206 237.807 195.781 238.382 195.184 238.418C195.184 238.418 194.452 238.454 193.713 238.462C192.978 238.475 192.241 238.486 192.241 238.486C192.052 238.492 191.86 238.555 191.701 238.67Z" fill="#D02600"/>
<path d="M208.416 228.595C209.038 230.028 208.244 231.76 206.638 232.461C205.044 233.193 203.224 232.467 202.649 231.034C202.06 229.568 202.907 227.957 204.457 227.242C206.022 226.56 207.795 227.165 208.416 228.595Z" fill="#D02600"/>
<path d="M172.871 240.982C173.271 242.492 174.961 243.327 176.646 242.848C178.331 242.369 179.337 240.766 178.893 239.27C178.449 237.771 176.758 236.938 175.117 237.404C173.473 237.87 172.468 239.473 172.871 240.982Z" fill="#D02600"/>
<path d="M156.809 181.254C156.809 181.254 157.623 180.454 158.437 179.657C159.21 178.802 159.979 177.947 159.979 177.947C160.601 177.246 161.727 177.476 162.163 178.385L164.27 182.843C164.41 183.142 164.645 183.383 164.936 183.528L169.347 185.651C170.262 186.076 170.484 187.276 169.75 187.972L166.136 191.4C165.892 191.63 165.73 191.937 165.678 192.268C165.678 192.268 165.503 193.537 165.265 194.729C165.029 195.937 164.793 197.148 164.793 197.148C164.593 198.14 163.407 198.655 162.527 198.129L158.292 195.529C158.012 195.353 157.681 195.279 157.352 195.32C157.352 195.32 156.125 195.471 154.897 195.619C153.653 195.693 152.407 195.767 152.407 195.767C151.39 195.824 150.637 194.855 150.935 193.904L152.311 189.274C152.396 188.961 152.368 188.616 152.239 188.315L150.316 183.78C149.927 182.851 150.491 181.821 151.415 181.788L155.99 181.61C156.303 181.594 156.59 181.468 156.809 181.254Z" fill="#FAD221"/>
<path d="M129.811 196.674C129.197 193.792 130.877 191.123 133.49 190.427C136.093 189.687 138.88 191.359 139.712 194.153C140.545 196.948 138.926 199.86 136.096 200.658C133.257 201.408 130.411 199.493 129.811 196.674Z" fill="#FAD221"/>
<path d="M185.446 171.651C183.692 169.322 180.489 168.689 178.292 170.245C176.133 171.856 175.481 174.944 177.026 177.418C178.569 179.89 181.892 180.706 184.262 178.95C186.67 177.248 187.196 173.98 185.446 171.651Z" fill="#FAD221"/>
<path d="M88.4911 193.687L92.8447 192.268C93.7214 191.978 94.6092 192.75 94.5653 193.753L94.3352 198.671C94.3187 199 94.4119 199.329 94.6009 199.6L97.4969 203.466C98.1052 204.255 97.738 205.428 96.7627 205.723C96.7627 205.723 95.5681 206.085 94.3763 206.447C93.1735 206.732 91.9707 207.017 91.9707 207.017C91.6474 207.093 91.3624 207.277 91.1597 207.54L88.0884 211.447C87.4472 212.244 86.154 212.176 85.6225 211.313C85.6225 211.313 84.9814 210.261 84.3402 209.209C83.7073 208.167 83.1019 207.041 83.1019 207.041C82.9375 206.748 82.6799 206.515 82.373 206.384L77.7948 204.425C76.866 204.025 76.6578 202.825 77.3701 202.107L80.7703 198.586C80.9922 198.351 81.1292 198.041 81.1566 197.712L81.5867 192.802C81.6799 191.8 82.658 191.194 83.4827 191.635C83.4827 191.635 84.5019 192.17 85.5211 192.704C86.5622 193.17 87.6006 193.638 87.6006 193.638C87.8801 193.767 88.1952 193.783 88.4911 193.687Z" fill="#FAD221"/>
<path d="M57.4543 194.578C58.2899 191.786 61.0763 190.079 63.6736 190.775C66.2573 191.537 67.9396 194.205 67.3505 197.063C66.7615 199.915 63.9285 201.836 61.0955 201.011C58.2488 200.252 56.6186 197.37 57.4543 194.578Z" fill="#FAD221"/>
<path d="M118.315 198.734C117.89 195.819 115.389 193.898 112.695 194.153C109.997 194.364 107.964 196.898 108.153 199.805C108.342 202.715 110.871 204.885 113.802 204.649C116.726 204.37 118.731 201.586 118.315 198.734Z" fill="#FAD221"/>
<path d="M87.9413 148.455L85.374 148.719C84.8452 148.771 84.4315 148.269 84.5822 147.751L85.3028 145.212C85.3521 145.042 85.3411 144.861 85.2754 144.699L84.3247 142.299C84.1356 141.811 84.4836 141.255 84.9904 141.225L87.459 141.08C87.6234 141.069 87.7796 141 87.9056 140.88L89.7358 139.096C90.1057 138.729 90.6783 138.885 90.8537 139.373L91.7359 141.762C91.7962 141.921 91.9085 142.053 92.051 142.132L94.2182 143.313C94.6621 143.554 94.736 144.206 94.3552 144.568L92.4592 146.329C92.3304 146.447 92.2428 146.606 92.2126 146.781L91.7633 149.382C91.6729 149.913 91.0838 150.193 90.629 149.919L88.4262 148.576C88.2837 148.483 88.1111 148.439 87.9413 148.455Z" fill="#D02600"/>
<path d="M104.899 147.921C104.737 149.494 103.381 150.601 101.874 150.387C100.365 150.179 99.3261 148.759 99.559 147.214C99.7892 145.669 101.143 144.579 102.581 144.776C104.017 144.984 105.055 146.387 104.899 147.921Z" fill="#D02600"/>
<path d="M127.176 151.853L124.782 152.801C124.288 152.995 123.754 152.623 123.754 152.083L123.751 149.442C123.751 149.266 123.694 149.094 123.587 148.957L122.017 146.905C121.702 146.485 121.883 145.855 122.362 145.691L124.697 144.883C124.853 144.828 124.984 144.718 125.072 144.57L126.349 142.359C126.606 141.918 127.198 141.885 127.502 142.299L129.004 144.362C129.105 144.499 129.247 144.595 129.409 144.633L131.817 145.19C132.311 145.305 132.56 145.91 132.289 146.359L130.943 148.565C130.85 148.713 130.812 148.888 130.831 149.064L131.108 151.688C131.165 152.225 130.675 152.653 130.163 152.51L127.68 151.82C127.513 151.782 127.335 151.793 127.176 151.853Z" fill="#D02600"/>
<path d="M143.341 146.721C143.606 148.266 142.609 149.749 141.097 149.929C139.587 150.132 138.204 149.042 138.009 147.491C137.812 145.943 138.823 144.529 140.261 144.335C141.705 144.165 143.078 145.19 143.341 146.721Z" fill="#D02600"/>
<path d="M111.038 148.428C110.937 149.995 112.085 151.362 113.608 151.382C115.131 151.425 116.392 150.192 116.422 148.633C116.452 147.072 115.301 145.773 113.849 145.732C112.394 145.716 111.139 146.877 111.038 148.428Z" fill="#D02600"/>
<path d="M165.862 144.48L163.816 146.05C163.394 146.368 162.777 146.154 162.632 145.633L161.912 143.094C161.862 142.924 161.761 142.773 161.621 142.672L159.55 141.118C159.131 140.8 159.136 140.146 159.553 139.858L161.583 138.455C161.717 138.362 161.816 138.219 161.859 138.055L162.484 135.587C162.607 135.08 163.161 134.866 163.566 135.192L165.575 136.77C165.712 136.874 165.876 136.929 166.04 136.921L168.509 136.806C169.016 136.781 169.421 137.299 169.284 137.803L168.594 140.288C168.547 140.455 168.556 140.636 168.621 140.8L169.605 143.25C169.808 143.751 169.452 144.294 168.92 144.296L166.339 144.305C166.164 144.307 165.997 144.368 165.862 144.48Z" fill="#D02600"/>
<path d="M149.393 145.57C149.719 147.118 151.185 148.075 152.662 147.702C154.141 147.338 155.024 145.814 154.632 144.302C154.24 142.79 152.78 141.847 151.369 142.198C149.96 142.554 149.075 144.061 149.393 145.57Z" fill="#D02600"/>
<path d="M121.142 97.2482L124.416 94.3741C125.068 93.7851 126.107 94.0946 126.452 95.0262L128.11 99.5524C128.219 99.8565 128.425 100.111 128.693 100.278C128.693 100.278 129.699 100.898 130.707 101.52C131.737 102.131 132.767 102.742 132.767 102.742C133.619 103.237 133.74 104.418 132.97 105.032C132.97 105.032 132.028 105.783 131.088 106.536C130.145 107.306 129.167 108.018 129.167 108.018C128.904 108.207 128.718 108.482 128.636 108.794C128.636 108.794 128.315 109.961 127.995 111.131C127.652 112.306 127.31 113.482 127.31 113.482C127.027 114.46 125.816 114.857 125.008 114.238C125.008 114.238 124.036 113.495 123.063 112.753C122.112 112.002 121.161 111.254 121.161 111.254C120.909 111.051 120.597 110.945 120.274 110.947C120.274 110.947 119.063 110.953 117.849 110.895C116.646 110.849 115.441 110.802 115.441 110.802C114.46 110.764 113.854 109.742 114.246 108.838C114.246 108.838 114.712 107.734 115.178 106.632C115.619 105.536 116.063 104.437 116.063 104.437C116.178 104.144 116.191 103.816 116.098 103.506L114.748 98.8811C114.474 97.9277 115.126 97.0592 116 97.1496L120.342 97.5167C120.635 97.5386 120.92 97.4454 121.142 97.2482Z" fill="#FAD221"/>
<path d="M93.7216 108.492C93.612 105.627 95.5929 103.248 98.1355 103.015C100.675 102.742 103.073 104.807 103.484 107.591C103.903 110.443 101.936 112.986 99.0889 113.29C96.2395 113.55 93.8285 111.32 93.7216 108.492Z" fill="#FAD221"/>
<path d="M149.115 90.2669C147.501 87.897 144.496 87.1572 142.312 88.4833C140.104 89.771 139.402 92.8561 140.726 95.3412C142.082 97.8865 145.175 98.7604 147.646 97.3165C150.093 95.8315 150.71 92.6068 149.115 90.2669Z" fill="#FAD221"/>
</svg>
